<?xml version="1.0" encoding="UTF-8" standalone="no"?>
<svg
   xmlns="http://www.w3.org/2000/svg"
   id="electronika-logo"
   version="1.1"
   viewBox="0 0 125 245"
   height="245"
   width="125">
  <rect
     ry="0"
     y="2.5"
     x="2.5"
     height="240"
     width="120"
     id="logo-box"
     style="fill:none;fill-opacity:1;stroke:#B6B7AB;stroke-width:5;stroke-linecap:square;stroke-linejoin:miter;stroke-miterlimit:4;stroke-dasharray:none;stroke-opacity:1" />
  <path
     style="fill:#B6B7AB;fill-opacity:1;stroke:#B6B7AB;stroke-width:2;stroke-linecap:butt;stroke-linejoin:miter;stroke-miterlimit:4;stroke-dasharray:none;stroke-opacity:1"
     d="m 12.5,232.49998 v -20 c 10,-5 30,0 40,-30 10,-30 10,-169.999996 10,-169.999996 0,0 0,139.999996 10,169.999996 10,30 30,25 40,30 v 20 c -30,-20 -70,-20 -100,0 z"
     id="logo-main" />
  <path
     id="letter-e"
     d="m 12.5,192.49998 v 10 c 10,0 30,0 30,-25 0,-25 -20,-25 -30,-25 v 10 c 20,0 20,10 20,10 h -20 v 10 h 20 c 0,0 0,10 -20,10 z"
     style="fill:#B6B7AB;fill-opacity:1;stroke:#B6B7AB;stroke-width:1;stroke-linecap:butt;stroke-linejoin:miter;stroke-miterlimit:4;stroke-dasharray:none;stroke-opacity:1" />
  <path
     id="letter-s"
     d="m 112.5,162.49998 v -10 c -10,0 -30,0 -30,25 0,25 20,25 30,25 v -10 c -20,0 -20,-15 -20,-15 0,0 0,-15 20,-15 z"
     style="fill:#B6B7AB;fill-opacity:1;stroke:#B6B7AB;stroke-width:1;stroke-linecap:butt;stroke-linejoin:miter;stroke-miterlimit:4;stroke-dasharray:none;stroke-opacity:1" />
</svg>
